<?xml version="1.0" encoding="utf-8"?>
<!-- Generator: Adobe Illustrator 21.0.2, SVG Export Plug-In . SVG Version: 6.00 Build 0)  -->
<svg version="1.1" xmlns="http://www.w3.org/2000/svg" xmlns:xlink="http://www.w3.org/1999/xlink" x="0px" y="0px"
	 viewBox="0 0 864 864" style="enable-background:new 0 0 864 864;" xml:space="preserve">
<style type="text/css">
	.st0{stroke:#FFFFFF;stroke-width:12;stroke-miterlimit:10;}
	.st1{fill:none;stroke:#FFFFFF;stroke-width:33;stroke-miterlimit:10;}
	.st2{fill:#FFFFFF;}
	.st3{display:none;}
	.st4{display:inline;fill:none;stroke:#000000;stroke-width:33;stroke-miterlimit:10;}
</style>
<g id="Layer_3">
	<circle class="st0" cx="431" cy="432" r="421"/>
</g>
<g id="Layer_1">
	<g>
		<path class="st1" d="M432.5,82.4c-99.5,0-179.9,79.8-180.5,179.3c-0.1,21.9,6.7,59,11.3,75.3c30.8,107.2,90.2,221,99.3,221
			c8.2,0.1,15-13.1,21.4-31.3c2.4-6.9,12.7-5.2,12.7,2.2l0.9,190.9c-20.1,0-36.2,17-34.8,37.4c1.2,17.4,15.5,31.5,32.9,32.4
			c10.4,0.5,19.8-3.5,26.5-10.2c6.3-6.3,10.2-15,10.2-24.7c0,19.3,14.8,35,34.2,34.9c18.4-0.1,33.8-14.8,34.7-33.2
			c0.9-20-15-36.5-34.8-36.5l-0.9-188.5c0-7.4,10.3-9.1,12.7-2.1c6.4,18.8,13.2,32.4,21.4,32.3c9.1,0,71.2-105,101.9-223.7
			c6.5-25,11.3-73.9,11.3-75C613,163.2,532.2,82.4,432.5,82.4z M431.6,385c-69.8,0-126.4-56.6-126.4-126.4
			c0-69.8,56.6-126.4,126.4-126.4s126.4,56.6,126.4,126.4C558.1,328.4,501.5,385,431.6,385z"/>
		<g>
			<g>
				<path class="st2" d="M355.2,238.7c9.4-34.1,40.2-58.1,76-58.4c15.4-0.2,15.5-24.2,0-24c-46.2,0.5-86.8,31.5-99.2,76
					C327.9,247.2,351,253.6,355.2,238.7L355.2,238.7z"/>
			</g>
		</g>
	</g>
</g>
<g id="Layer_2" class="st3">
	<path class="st4" d="M507.5,497.5c0,22.1-17.9,40-40,40s-39-17.9-39-40l0,0c0,22.1-17.9,40-40,40s-40-17.9-40-40
		c0-22.1,17.9-40,40-40v-252h79v252C489.6,457.5,507.5,475.4,507.5,497.5z"/>
</g>
</svg>
